<mxfile host="app.diagrams.net" modified="2024-04-17T19:21:49.819Z" agent="Mozilla/5.0 (Windows NT 10.0; Win64; x64) AppleWebKit/537.36 (KHTML, like Gecko) Chrome/123.0.0.0 Safari/537.36" etag="y8YcBfN7-x90QbYJht6s" version="24.2.5" type="github">
  <diagram name="Página-1" id="q87BiIpikEZuB7U_goR0">
    <mxGraphModel dx="880" dy="468" grid="1" gridSize="1" guides="1" tooltips="1" connect="1" arrows="1" fold="1" page="1" pageScale="1" pageWidth="827" pageHeight="1169" math="0" shadow="0">
      <root>
        <mxCell id="0" />
        <mxCell id="1" parent="0" />
        <mxCell id="7NWND6y4SpeGCh8oB7Ho-7" value="EMPLEADOS" style="swimlane;fontStyle=0;childLayout=stackLayout;horizontal=1;startSize=30;horizontalStack=0;resizeParent=1;resizeParentMax=0;resizeLast=0;collapsible=1;marginBottom=0;whiteSpace=wrap;html=1;fillColor=#dae8fc;gradientColor=#7ea6e0;strokeColor=#6c8ebf;" vertex="1" parent="1">
          <mxGeometry x="110" y="39" width="140" height="120" as="geometry" />
        </mxCell>
        <mxCell id="7NWND6y4SpeGCh8oB7Ho-10" value="&lt;div&gt;id_empleado (PK)&lt;/div&gt;&lt;div&gt;nombre&lt;/div&gt;&lt;div&gt;apellido&lt;/div&gt;&lt;div&gt;cargo&lt;/div&gt;&lt;div&gt;salario&lt;/div&gt;" style="text;strokeColor=none;fillColor=none;align=left;verticalAlign=middle;spacingLeft=4;spacingRight=4;overflow=hidden;points=[[0,0.5],[1,0.5]];portConstraint=eastwest;rotatable=0;whiteSpace=wrap;html=1;" vertex="1" parent="7NWND6y4SpeGCh8oB7Ho-7">
          <mxGeometry y="30" width="140" height="90" as="geometry" />
        </mxCell>
        <mxCell id="7NWND6y4SpeGCh8oB7Ho-11" value="CLIENTES" style="swimlane;fontStyle=0;childLayout=stackLayout;horizontal=1;startSize=30;horizontalStack=0;resizeParent=1;resizeParentMax=0;resizeLast=0;collapsible=1;marginBottom=0;whiteSpace=wrap;html=1;fillColor=#dae8fc;gradientColor=#7ea6e0;strokeColor=#6c8ebf;" vertex="1" parent="1">
          <mxGeometry x="547" y="39" width="140" height="111" as="geometry" />
        </mxCell>
        <mxCell id="7NWND6y4SpeGCh8oB7Ho-14" value="&lt;div&gt;id_cliente (PK)&lt;/div&gt;&lt;div&gt;nombre&lt;/div&gt;&lt;div&gt;apellido&lt;/div&gt;&lt;div&gt;dirección&lt;/div&gt;&lt;div&gt;teléfono&lt;/div&gt;" style="text;strokeColor=none;fillColor=none;align=left;verticalAlign=middle;spacingLeft=4;spacingRight=4;overflow=hidden;points=[[0,0.5],[1,0.5]];portConstraint=eastwest;rotatable=0;whiteSpace=wrap;html=1;" vertex="1" parent="7NWND6y4SpeGCh8oB7Ho-11">
          <mxGeometry y="30" width="140" height="81" as="geometry" />
        </mxCell>
        <mxCell id="7NWND6y4SpeGCh8oB7Ho-15" value="PRODUCTOS" style="swimlane;fontStyle=0;childLayout=stackLayout;horizontal=1;startSize=30;horizontalStack=0;resizeParent=1;resizeParentMax=0;resizeLast=0;collapsible=1;marginBottom=0;whiteSpace=wrap;html=1;fillColor=#dae8fc;gradientColor=#7ea6e0;strokeColor=#6c8ebf;" vertex="1" parent="1">
          <mxGeometry x="110" y="216" width="140" height="123" as="geometry" />
        </mxCell>
        <mxCell id="7NWND6y4SpeGCh8oB7Ho-18" value="&lt;div&gt;id_producto (PK)&lt;/div&gt;&lt;div&gt;nombre&lt;/div&gt;&lt;div&gt;descripción&lt;/div&gt;&lt;div&gt;precio&lt;/div&gt;&lt;div&gt;cantidad_disponible&lt;/div&gt;" style="text;strokeColor=none;fillColor=none;align=left;verticalAlign=middle;spacingLeft=4;spacingRight=4;overflow=hidden;points=[[0,0.5],[1,0.5]];portConstraint=eastwest;rotatable=0;whiteSpace=wrap;html=1;" vertex="1" parent="7NWND6y4SpeGCh8oB7Ho-15">
          <mxGeometry y="30" width="140" height="93" as="geometry" />
        </mxCell>
        <mxCell id="7NWND6y4SpeGCh8oB7Ho-19" value="CATEGORIA" style="swimlane;fontStyle=0;childLayout=stackLayout;horizontal=1;startSize=30;horizontalStack=0;resizeParent=1;resizeParentMax=0;resizeLast=0;collapsible=1;marginBottom=0;whiteSpace=wrap;html=1;fillColor=#dae8fc;gradientColor=#7ea6e0;strokeColor=#6c8ebf;" vertex="1" parent="1">
          <mxGeometry x="110" y="361" width="140" height="79" as="geometry" />
        </mxCell>
        <mxCell id="7NWND6y4SpeGCh8oB7Ho-22" value="&lt;div&gt;id_categoria (PK)&lt;/div&gt;&lt;div&gt;nombre_categoria&lt;/div&gt;" style="text;strokeColor=none;fillColor=none;align=left;verticalAlign=middle;spacingLeft=4;spacingRight=4;overflow=hidden;points=[[0,0.5],[1,0.5]];portConstraint=eastwest;rotatable=0;whiteSpace=wrap;html=1;" vertex="1" parent="7NWND6y4SpeGCh8oB7Ho-19">
          <mxGeometry y="30" width="140" height="49" as="geometry" />
        </mxCell>
        <mxCell id="7NWND6y4SpeGCh8oB7Ho-23" value="VENTAS" style="swimlane;fontStyle=0;childLayout=stackLayout;horizontal=1;startSize=30;horizontalStack=0;resizeParent=1;resizeParentMax=0;resizeLast=0;collapsible=1;marginBottom=0;whiteSpace=wrap;html=1;fillColor=#dae8fc;gradientColor=#7ea6e0;strokeColor=#6c8ebf;" vertex="1" parent="1">
          <mxGeometry x="541" y="214" width="140" height="89" as="geometry" />
        </mxCell>
        <mxCell id="7NWND6y4SpeGCh8oB7Ho-24" value="&lt;div&gt;id_venta (PK)&lt;/div&gt;&lt;div&gt;cod_cliente (FK)&lt;/div&gt;&lt;div&gt;fecha_venta&lt;/div&gt;" style="text;strokeColor=none;fillColor=none;align=left;verticalAlign=middle;spacingLeft=4;spacingRight=4;overflow=hidden;points=[[0,0.5],[1,0.5]];portConstraint=eastwest;rotatable=0;whiteSpace=wrap;html=1;" vertex="1" parent="7NWND6y4SpeGCh8oB7Ho-23">
          <mxGeometry y="30" width="140" height="59" as="geometry" />
        </mxCell>
        <mxCell id="7NWND6y4SpeGCh8oB7Ho-25" value="" style="endArrow=none;html=1;rounded=0;" edge="1" parent="1">
          <mxGeometry width="50" height="50" relative="1" as="geometry">
            <mxPoint x="683" y="253" as="sourcePoint" />
            <mxPoint x="689" y="76" as="targetPoint" />
            <Array as="points">
              <mxPoint x="755" y="253" />
              <mxPoint x="755" y="76" />
            </Array>
          </mxGeometry>
        </mxCell>
        <mxCell id="7NWND6y4SpeGCh8oB7Ho-26" value="DETALLE VENTA" style="swimlane;fontStyle=0;childLayout=stackLayout;horizontal=1;startSize=30;horizontalStack=0;resizeParent=1;resizeParentMax=0;resizeLast=0;collapsible=1;marginBottom=0;whiteSpace=wrap;html=1;fillColor=#dae8fc;gradientColor=#7ea6e0;strokeColor=#6c8ebf;" vertex="1" parent="1">
          <mxGeometry x="533" y="351" width="147" height="112" as="geometry" />
        </mxCell>
        <mxCell id="7NWND6y4SpeGCh8oB7Ho-27" value="&lt;div&gt;id_detalle_venta (PK)&lt;/div&gt;&lt;div&gt;id_venta (FK)&lt;/div&gt;&lt;div&gt;id_producto (FK)&lt;/div&gt;&lt;div&gt;cantidad_vendida&lt;/div&gt;&lt;div&gt;precio_unitario&lt;/div&gt;" style="text;strokeColor=none;fillColor=none;align=left;verticalAlign=middle;spacingLeft=4;spacingRight=4;overflow=hidden;points=[[0,0.5],[1,0.5]];portConstraint=eastwest;rotatable=0;whiteSpace=wrap;html=1;" vertex="1" parent="7NWND6y4SpeGCh8oB7Ho-26">
          <mxGeometry y="30" width="147" height="82" as="geometry" />
        </mxCell>
        <mxCell id="7NWND6y4SpeGCh8oB7Ho-28" value="PROVEDORES" style="swimlane;fontStyle=0;childLayout=stackLayout;horizontal=1;startSize=30;horizontalStack=0;resizeParent=1;resizeParentMax=0;resizeLast=0;collapsible=1;marginBottom=0;whiteSpace=wrap;html=1;fillColor=#dae8fc;gradientColor=#7ea6e0;strokeColor=#6c8ebf;" vertex="1" parent="1">
          <mxGeometry x="541" y="494" width="140" height="95" as="geometry" />
        </mxCell>
        <mxCell id="7NWND6y4SpeGCh8oB7Ho-29" value="&lt;div&gt;id_proveedor (PK)&lt;/div&gt;&lt;div&gt;nombre&lt;/div&gt;&lt;div&gt;dirección&lt;/div&gt;&lt;div&gt;teléfono&lt;/div&gt;&lt;div&gt;&lt;br&gt;&lt;/div&gt;" style="text;strokeColor=none;fillColor=none;align=left;verticalAlign=middle;spacingLeft=4;spacingRight=4;overflow=hidden;points=[[0,0.5],[1,0.5]];portConstraint=eastwest;rotatable=0;whiteSpace=wrap;html=1;" vertex="1" parent="7NWND6y4SpeGCh8oB7Ho-28">
          <mxGeometry y="30" width="140" height="65" as="geometry" />
        </mxCell>
        <mxCell id="7NWND6y4SpeGCh8oB7Ho-30" value="COMPRAS" style="swimlane;fontStyle=0;childLayout=stackLayout;horizontal=1;startSize=30;horizontalStack=0;resizeParent=1;resizeParentMax=0;resizeLast=0;collapsible=1;marginBottom=0;whiteSpace=wrap;html=1;fillColor=#dae8fc;gradientColor=#7ea6e0;strokeColor=#6c8ebf;" vertex="1" parent="1">
          <mxGeometry x="117" y="471" width="140" height="88" as="geometry" />
        </mxCell>
        <mxCell id="7NWND6y4SpeGCh8oB7Ho-31" value="&lt;div&gt;id_compra (PK)&lt;/div&gt;&lt;div&gt;id_proveedor (FK)&lt;/div&gt;&lt;div&gt;fecha_compra&lt;/div&gt;" style="text;strokeColor=none;fillColor=none;align=left;verticalAlign=middle;spacingLeft=4;spacingRight=4;overflow=hidden;points=[[0,0.5],[1,0.5]];portConstraint=eastwest;rotatable=0;whiteSpace=wrap;html=1;" vertex="1" parent="7NWND6y4SpeGCh8oB7Ho-30">
          <mxGeometry y="30" width="140" height="58" as="geometry" />
        </mxCell>
        <mxCell id="7NWND6y4SpeGCh8oB7Ho-32" value="DETALLE COMPRA" style="swimlane;fontStyle=0;childLayout=stackLayout;horizontal=1;startSize=30;horizontalStack=0;resizeParent=1;resizeParentMax=0;resizeLast=0;collapsible=1;marginBottom=0;whiteSpace=wrap;html=1;fillColor=#dae8fc;gradientColor=#7ea6e0;strokeColor=#6c8ebf;" vertex="1" parent="1">
          <mxGeometry x="112" y="585" width="147" height="112" as="geometry" />
        </mxCell>
        <mxCell id="7NWND6y4SpeGCh8oB7Ho-33" value="&lt;div&gt;id_detalle_compra (PK)&lt;/div&gt;&lt;div&gt;id_compra (FK)&lt;/div&gt;&lt;div&gt;id_producto (FK)&lt;/div&gt;&lt;div&gt;cantidad_comprada&lt;/div&gt;&lt;div&gt;precio_unitario&lt;/div&gt;" style="text;strokeColor=none;fillColor=none;align=left;verticalAlign=middle;spacingLeft=4;spacingRight=4;overflow=hidden;points=[[0,0.5],[1,0.5]];portConstraint=eastwest;rotatable=0;whiteSpace=wrap;html=1;" vertex="1" parent="7NWND6y4SpeGCh8oB7Ho-32">
          <mxGeometry y="30" width="147" height="82" as="geometry" />
        </mxCell>
      </root>
    </mxGraphModel>
  </diagram>
</mxfile>
